<?xml version="1.0" encoding="utf-8"?>
<!-- Generator: Adobe Illustrator 27.0.0, SVG Export Plug-In . SVG Version: 6.00 Build 0)  -->
<svg version="1.1" id="Layer_1" xmlns="http://www.w3.org/2000/svg" xmlns:xlink="http://www.w3.org/1999/xlink" x="0px" y="0px"
	 viewBox="0 0 64 64.1999969" style="enable-background:new 0 0 64 64.1999969;" xml:space="preserve">
<path d="M12.5830078,46.9361343c0.1757812,0.2285156,0.4414062,0.3691406,0.7275391,0.3876953
	c0.0214844,0.0009766,0.0429688,0.0019531,0.0644531,0.0019531c0.2646484,0,0.5185547-0.1044922,0.7070312-0.2929688
	l32.9511719-32.9511719c0.203125-0.203125,0.3095703-0.484375,0.2910156-0.7714844
	c-0.0185547-0.2861328-0.1591797-0.5517578-0.3876953-0.7275391c-4.3007812-3.3183594-9.4667969-5.0722651-14.9355469-5.0722651
	c-0.0058594,0-0.0107422,0-0.015625,0c-6.5361328,0-12.6816406,2.545898-17.3056641,7.1689448
	c-4.6269531,4.6259766-7.1738281,10.7783203-7.1699219,17.3203125C7.5097656,37.4683609,9.2636719,42.6334,12.5830078,46.9361343z
	 M16.09375,16.093359c4.2460938-4.2460938,9.8886719-6.5830078,15.8916016-6.5830078c0.0058594,0,0.0146484-0.0019531,0.0146484,0
	c4.6386719,0,9.0390625,1.3730469,12.7949219,3.9814453L13.4921875,44.7945328
	c-2.609375-3.7568359-3.9824219-8.15625-3.9824219-12.7959003C9.5068359,25.9908199,11.8447266,20.3423824,16.09375,16.093359z"/>
<path d="M16.6757812,50.6900406c0.0185547,0.2861328,0.1591797,0.5517578,0.3876953,0.7275391
	c4.3007812,3.3183594,9.4667969,5.0722656,14.9355469,5.0722656c0.0058594,0,0.0107422,0,0.015625,0
	c6.5361328,0,12.6816406-2.5458984,17.3046875-7.1679688c4.6279297-4.6269531,7.1748047-10.7792969,7.1708984-17.3222675
	c0-5.4697266-1.7539062-10.6347656-5.0732422-14.9365234c-0.1757812-0.2275391-0.4414062-0.3681641-0.7275391-0.3867188
	c-0.2851562-0.0146484-0.5673828,0.0869141-0.7714844,0.2910156L16.9667969,49.9185562
	C16.7636719,50.1216812,16.6572266,50.4029312,16.6757812,50.6900406z M50.5078125,19.2056637
	c2.609375,3.7558594,3.9824219,8.1552734,3.9824219,12.7949238c0.0029297,6.0087891-2.3349609,11.6572266-6.5849609,15.90625
	c-4.2451172,4.2460938-9.8876953,6.5830078-15.890625,6.5830078c-0.0058594,0-0.0146484-0.0009766-0.0146484,0
	c-4.6386719,0-9.0390625-1.3730469-12.7949219-3.9814453L50.5078125,19.2056637z"/>
<path d="M32,61.9996109c16.5419922,0,30-13.4580078,30-30.0000019s-13.4580078-30-30-30s-30,13.4580078-30,30
	S15.4580078,61.9996109,32,61.9996109z M32,3.9996095c15.4394531,0,28,12.5605469,28,28S47.4394531,59.9996109,32,59.9996109
	S4,47.439064,4,31.999609S16.5605469,3.9996095,32,3.9996095z"/>
</svg>
